<svg width="12" height="12" viewBox="0 0 12 12" fill="none" xmlns="http://www.w3.org/2000/svg">
<path d="M2.47044 7.25004L2.30382 6.77862L1.36098 7.11187L1.5276 7.58329L1.99902 7.41667L2.47044 7.25004ZM2.75011 1.875V1.375H1.75011V1.875H2.25011H2.75011ZM2.25011 3.875H1.75011V4.375H2.25011V3.875ZM4.25011 4.375H4.75011V3.375H4.25011V3.875V4.375ZM2.11861 3.2762L1.79528 3.65758L2.55805 4.30425L2.88139 3.92286L2.5 3.59953L2.11861 3.2762ZM6.00719 10.25V10.75C8.63054 10.75 10.7572 8.62335 10.7572 6H10.2572H9.75719C9.75719 8.07107 8.07826 9.75 6.00719 9.75V10.25ZM10.2572 6H10.7572C10.7572 3.37665 8.63054 1.25 6.00719 1.25V1.75V2.25C8.07826 2.25 9.75719 3.92893 9.75719 6H10.2572ZM1.99902 7.41667L1.5276 7.58329C2.17944 9.4275 3.93823 10.75 6.00719 10.75V10.25V9.75C4.3752 9.75 2.98548 8.70721 2.47044 7.25004L1.99902 7.41667ZM2.25011 1.875H1.75011V3.875H2.25011H2.75011V1.875H2.25011ZM2.25011 3.875V4.375H4.25011V3.875V3.375H2.25011V3.875ZM6.00719 1.75V1.25C4.27936 1.25 3.15788 2.05034 2.11861 3.2762L2.5 3.59953L2.88139 3.92286C3.8125 2.82458 4.67975 2.25 6.00719 2.25V1.75Z" fill="#CCCCCC"/>
<path d="M6 3.75V6L7.5 7.5" stroke="#CCCCCC" stroke-linecap="square" stroke-linejoin="round"/>
</svg>
